# Blender 4.3.2
# www.blender.org
mtllib mymeshnodes_95square.mtl
o Cube
v 0.462068 0.462347 -0.435270
v 0.462068 -0.437653 -0.435270
v 0.462068 0.462347 0.464730
v 0.462068 -0.437653 0.464730
v -0.437932 0.462347 -0.435270
v -0.437932 -0.437653 -0.435270
v -0.437932 0.462347 0.464730
v -0.437932 -0.437653 0.464730
vn -0.0000 1.0000 -0.0000
vn -0.0000 -0.0000 1.0000
vn -1.0000 -0.0000 -0.0000
vn -0.0000 -1.0000 -0.0000
vn 1.0000 -0.0000 -0.0000
vn -0.0000 -0.0000 -1.0000
vt 0.997143 1.002680
vt 0.999243 2.008040
vt 0.001331 2.010124
vt -0.000768 1.004764
vt -0.002868 -0.000596
vt -0.998680 1.006848
vt -1.000780 0.001488
vt 2.990868 -0.006848
vt 2.992967 0.998512
vt 1.995055 1.000596
vt 1.992956 -0.004764
vt 0.992945 -1.008040
vt 0.995044 -0.002680
vt -0.004967 -1.005956
s 0
usemtl Material
f 1/1/1 5/2/1 7/3/1 3/4/1
f 4/5/2 3/4/2 7/6/2 8/7/2
f 8/8/3 7/9/3 5/10/3 6/11/3
f 6/12/4 2/13/4 4/5/4 8/14/4
f 2/13/5 1/1/5 3/4/5 4/5/5
f 6/11/6 5/10/6 1/1/6 2/13/6
