# Blender 4.3.2
# www.blender.org
mtllib mymeshnodes_smsquare.mtl
o Cube
v 0.250064 0.238112 -0.235491
v 0.250064 -0.261888 -0.235491
v 0.250064 0.238113 0.264509
v 0.250064 -0.261887 0.264509
v -0.249936 0.238112 -0.235491
v -0.249936 -0.261888 -0.235491
v -0.249936 0.238113 0.264509
v -0.249936 -0.261887 0.264509
vn -0.0000 1.0000 -0.0000
vn -0.0000 -0.0000 1.0000
vn -1.0000 -0.0000 -0.0000
vn -0.0000 -1.0000 -0.0000
vn 1.0000 -0.0000 -0.0000
vn -0.0000 -0.0000 -1.0000
vt 1.002637 0.003561
vt 2.004515 0.003561
vt 2.004515 1.000658
vt 1.002637 1.000658
vt 0.000760 1.000658
vt 1.002637 1.997756
vt 0.000760 1.997756
vt 0.000760 -1.990634
vt 1.002637 -1.990634
vt 1.002637 -0.993537
vt 0.000760 -0.993537
vt -1.001117 0.003561
vt 0.000760 0.003561
vt -1.001117 1.000658
s 1
usemtl Material.001
f 1/1/1 5/2/1 7/3/1 3/4/1
f 4/5/2 3/4/2 7/6/2 8/7/2
f 8/8/3 7/9/3 5/10/3 6/11/3
f 6/12/4 2/13/4 4/5/4 8/14/4
f 2/13/5 1/1/5 3/4/5 4/5/5
f 6/11/6 5/10/6 1/1/6 2/13/6
